<svg xmlns="http://www.w3.org/2000/svg" height="40" viewBox="0 0 64 64" width="40" fill="#fff" stroke="#fff"><path d="M63 44v-8c0-3.839-2.42-7.114-5.811-8.406A6.983 6.983 0 0060 22c0-3.859-3.141-7-7-7s-7 3.141-7 7a6.992 6.992 0 002.981 5.722 17.854 17.854 0 00-3.006 1.173A10.536 10.536 0 0141.292 30H41v-7h-2v-4h-7c-1.654 0-3 1.346-3 3v11h-9v-9.118c6.332-1.012 11-6.418 11-12.927V4.5C31 2.57 29.43 1 27.5 1S24 2.57 24 4.5V10c0 3.309-2.691 6-6 6h-.111A6.973 6.973 0 0020 11c0-3.859-3.141-7-7-7s-7 3.141-7 7a6.987 6.987 0 002.696 5.509C4.24 17.915 1 22.086 1 27v5.982c0 1.34.522 2.598 1.473 3.543.944.941 2.204 1.474 3.527 1.456V53c0 2.206 1.794 4 4 4a3.974 3.974 0 003-1.382A3.974 3.974 0 0016 57c.732 0 1.409-.212 2-.556V63h6V41h22v2h-1.117a4.993 4.993 0 00-4.743 3.419l-3.955 11.867A3.585 3.585 0 0039.581 63h.559c1.545 0 2.91-.984 3.396-2.448L46 53.162V63h6v-8h9c1.103 0 2-.897 2-2v-2c0-1.103-.897-2-2-2h-.111A6.973 6.973 0 0063 44zM48 22c0-2.757 2.243-5 5-5s5 2.243 5 5-2.243 5-5 5-5-2.243-5-5zm-9 8h-2.5c-1.93 0-3.5 1.57-3.5 3.5 0 .539.133 1.044.351 1.5H32a1 1 0 01-1-1v-9.184c.314.112.648.184 1 .184h7zm-7-9h5v2h-5a1 1 0 010-2zm-6-11V4.5c0-.827.673-1.5 1.5-1.5s1.5.673 1.5 1.5v6.455a11.041 11.041 0 01-10.091 11.049l-.909.083v7.729A2.996 2.996 0 0116 27v-9h2c4.411 0 8-3.589 8-8zM8 11c0-2.757 2.243-5 5-5s5 2.243 5 5-2.243 5-5 5-5-2.243-5-5zM3.884 35.108A2.974 2.974 0 013 32.982V27c0-4.275 2.998-7.855 7-8.768V27a2.996 2.996 0 01-2 2.816V24H6v11.982c-.799 0-1.55-.31-2.116-.874zM16 55c-1.103 0-2-.897-2-2V34h-2v19c0 1.103-.897 2-2 2s-2-.897-2-2V31.899A5.009 5.009 0 0012 27v-9h2v9a5.01 5.01 0 004 4.899V53c0 1.103-.897 2-2 2zm6 6h-2V41h2zm2-22h-4v-4h9.184A2.996 2.996 0 0032 37h12.292c1.925 0 3.854-.455 5.577-1.316l.131-.066V39h-4zm20.824 11.367l-3.186 9.553A1.577 1.577 0 0140.14 61h-.559a1.582 1.582 0 01-1.5-2.081l3.955-11.867A2.998 2.998 0 0144.883 45H46v4.149a1.986 1.986 0 00-1.176 1.218zM50 61h-2V41h2v3zm11-10v2h-9v-2h4zm-9-2V34.618l1.447-.724-.895-1.789-3.578 1.789A10.516 10.516 0 0144.292 35H36.5c-.827 0-1.5-.673-1.5-1.5s.673-1.5 1.5-1.5h4.792c1.925 0 3.854-.455 5.577-1.316A16.02 16.02 0 0154 29c3.859 0 7 3.141 7 7v8c0 2.757-2.243 5-5 5z" stroke="#FFF" fill="#FFF" stroke-dasharray="1075,1077"/><path d="M38 13h1.586l2.293 2.293a2.43 2.43 0 001.707.707A2.417 2.417 0 0046 13.586V13h8c1.654 0 3-1.346 3-3V4c0-1.654-1.346-3-3-3H38c-1.654 0-3 1.346-3 3v6c0 1.654 1.346 3 3 3zm-1-9a1 1 0 011-1h16a1 1 0 011 1v6a1 1 0 01-1 1H44v2.586c0 .338-.468.531-.707.293L40.414 11H38a1 1 0 01-1-1z" stroke="#FFF" fill="#FFF" stroke-dasharray="121,123"/><path d="M45 6h2v2h-2zM49 6h2v2h-2zM41 6h2v2h-2z" stroke="#FFF" fill="#FFF" stroke-dasharray="8,10"/></svg>